<svg width="85" height="85" fill="none" xmlns="http://www.w3.org/2000/svg"><path d="M46.484 21.25s9.686-9.867 5.313-13.281c-3.03-2.366-6.108 1.416-7.969-1.328-2.8-4.13-5.312-3.985-5.312-3.985s-2.512-.145-5.313 3.985c-1.86 2.744-4.94-1.038-7.969 1.328-4.373 3.414 5.313 13.281 5.313 13.281h15.937z" fill="#6E83B7"/><path d="M48.084 17.802c-1.782-.803-3.896-1.277-5.763-1.55.935-.867 1.78-2.174 2.16-4.174l-1.304-.25c-.462 2.426-1.688 3.613-2.765 4.2a24.114 24.114 0 00-1.896-.09c-.48 0-1.127.026-1.876.088-1.086-.588-2.324-1.775-2.785-4.196l-1.304.25c.381 2 1.226 3.306 2.161 4.174-1.869.272-3.983.746-5.764 1.55a4.03 4.03 0 00-.904.568 39.643 39.643 0 002.503 2.878h15.937s1.165-1.187 2.504-2.88a4.077 4.077 0 00-.904-.568z" fill="#466089"/><path d="M38.516 23.906H49.14V21.46a2.69 2.69 0 00-1.605-2.446c-3.089-1.394-7.346-1.747-9.02-1.747-1.675 0-5.932.352-9.021 1.746-.968.438-1.604 1.384-1.604 2.447v2.447h10.625z" fill="#FFE352"/><path d="M38.516 19.922h1.328c11.736 0 21.25 9.513 21.25 21.25V53.58c0 1.409.559 2.76 1.556 3.755l.873.873a5.314 5.314 0 011.556 3.756v.457a5.313 5.313 0 01-5.312 5.312H17.266a5.313 5.313 0 01-5.313-5.312v-.456c0-1.409.56-2.76 1.557-3.756l.872-.872a5.314 5.314 0 001.557-3.756v-12.41c0-11.737 9.513-21.25 21.25-21.25h1.327z" fill="#6E83B7"/><path d="M38.516 53.125c5.868 0 10.625-4.757 10.625-10.625s-4.757-10.625-10.625-10.625S27.89 36.632 27.89 42.5s4.757 10.625 10.625 10.625z" fill="#FFB236"/><path d="M71.719 58.438h-3.985v22.578h3.985V58.437z" fill="#EDEFF1"/><path d="M82.344 57.11H71.719v25.234h10.625V57.109z" fill="#80D6FB"/><path d="M65.078 59.766c-1.91-3.747-7.236-5.313-10.625-5.313-3.39 0-8.01 1.453-10.625 5.313H31.875a3.984 3.984 0 100 7.968H27.89l-16.606-9.868a5.312 5.312 0 00-7.153 1.609l-1.03 1.543a2.657 2.657 0 00.738 3.684l21.385 14.093c.871.582 1.89.892 2.94.892h39.569v-19.92h-2.656z" fill="#FFD3B3"/><path d="M28.925 66.406a3.956 3.956 0 002.95 1.328h13.281v-1.328H28.925z" fill="#FCB98B"/><path d="M71.719 58.438H70.39v22.578h1.328V58.437z" fill="#D3D3D3"/><path d="M75.703 37.188V21.25h6.64L70.392 5.312 58.437 21.25h6.641v15.938h10.625z" fill="#9FDC6E"/><path d="M31.063 45.64h14.875c.586 0 1.062-.594 1.062-1.328v-3.984c0-.733-.476-1.328-1.063-1.328H31.063c-.587 0-1.063.595-1.063 1.328v3.984c0 .734.476 1.329 1.063 1.329z" fill="#fff"/><path d="M45.406 44.313v-3.985h-1.062v3.984h-2.125v-3.984h-1.063v3.984h-2.125v-3.984H37.97v3.984h-2.125v-3.984H34.78v3.984h-2.125v-3.984h-1.062v3.984H30c0 .734.476 1.329 1.063 1.329h14.875c.586 0 1.062-.595 1.062-1.328h-1.594z" fill="#FFE352"/></svg>