<svg width="85" height="85" fill="none" xmlns="http://www.w3.org/2000/svg"><path d="M74.375 10.625H47.812v13.281h26.563V10.625z" fill="#EDEFF1"/><path d="M74.375 22.578H47.812v1.328h26.563v-1.328z" fill="#D3D3D3"/><path d="M51.797 11.953h-1.328v9.297h1.328v-9.297zm3.984 0h-1.328v9.297h1.328v-9.297zm3.985 0h-1.328v9.297h1.328v-9.297zm3.984 0h-1.328v9.297h1.328v-9.297zm3.984 0h-1.328v9.297h1.328v-9.297zm3.985 0H70.39v9.297h1.328v-9.297zm-5.313-6.64H55.781v5.312h10.625V5.312z" fill="#6E83B7"/><path d="M61.758 2.656H60.43v3.985h1.328V2.656z" fill="#6E83B7"/><path d="M77.031 23.906H45.156v50.469h31.875V23.906z" fill="#EDEFF1"/><path d="M45.156 74.375h9.297V48.523l2.656 1.772v-8.506l-11.953-7.968v40.554z" fill="#D3D3D3"/><path d="M47.813 26.563h-1.329v45.156h1.328V26.563zm3.984 0h-1.328v45.156h1.328V26.563zm3.984 0h-1.328v45.156h1.328V26.563zm3.985 0h-1.328v45.156h1.328V26.563zm3.984 0h-1.328v45.156h1.328V26.563zm3.984 0h-1.328v45.156h1.328V26.563zm3.985 0H70.39v45.156h1.328V26.563zm3.984 0h-1.328v45.156h1.328V26.563z" fill="#6E83B7"/><path d="M47.813 35.591l-1.329-.885V71.72h1.328V35.59zm2.656 1.772v34.356h1.328V38.247l-1.328-.884zm5.312 3.541l-1.328-.885v8.504l1.328.886v-8.505z" fill="#466089"/><path d="M31.875 30.547l-21.25 14.61v29.218h42.5V45.156l-21.25-14.61z" fill="#EDEFF1"/><path d="M31.875 26.563L7.969 42.5v5.313l23.906-15.938 23.906 15.938V42.5L31.875 26.562z" fill="#6E83B7"/><path d="M46.729 57.68s5.14-5.236 2.818-7.048c-1.607-1.255-3.24.752-4.229-.705-1.486-2.192-2.818-2.114-2.818-2.114s-1.332-.078-2.818 2.114c-.988 1.456-2.62-.551-4.229.705-2.32 1.812 2.818 7.047 2.818 7.047h8.458z" fill="#6E83B7"/><path d="M47.577 55.849c-.823-.372-1.783-.611-2.672-.762.478-.513.88-1.23 1.067-2.218l-1.305-.249c-.332 1.743-1.433 2.148-1.917 2.245a8.497 8.497 0 00-.249-.006c-.066 0-.152.004-.23.006-.505-.097-1.604-.504-1.936-2.245l-1.304.25c.188.988.59 1.705 1.069 2.217-.89.151-1.85.39-2.674.762-.175.08-.336.183-.479.301a21.19 21.19 0 001.328 1.528h8.456s.618-.63 1.328-1.528a2.28 2.28 0 00-.482-.301z" fill="#466089"/><path d="M42.5 59.088h5.638V57.79c0-.563-.337-1.065-.852-1.297-1.638-.74-3.898-.927-4.786-.927-.889 0-3.148.187-4.787.927a1.427 1.427 0 00-.85 1.297v1.3H42.5z" fill="#FFE352"/><path d="M42.5 57.11h1.328c5.868 0 10.625 4.757 10.625 10.624v6.803c0 .746.296 1.462.825 1.99l1.007 1.008c.528.528.824 1.244.824 1.99v.003a2.815 2.815 0 01-2.815 2.816H30.706a2.815 2.815 0 01-2.815-2.816v-.003c0-.746.296-1.462.824-1.99l1.007-1.007a2.815 2.815 0 00.825-1.991v-6.803c0-5.867 4.757-10.625 10.625-10.625H42.5z" fill="#6E83B7"/><path d="M42.5 74.266a5.313 5.313 0 100-10.625 5.313 5.313 0 000 10.625z" fill="#FFB236"/><path d="M39.438 70.64h6.124c.242 0 .438-.236.438-.528v-1.584c0-.291-.196-.528-.438-.528h-6.124c-.242 0-.438.237-.438.528v1.584c0 .292.196.529.438.529z" fill="#fff"/><path d="M45.344 70.112v-1.584h-.438v1.584h-.875v-1.584h-.437v1.584h-.875v-1.584h-.438v1.584h-.875v-1.584h-.437v1.584h-.875v-1.584h-.438v1.584H39c0 .292.196.529.438.529h6.124c.242 0 .438-.237.438-.529h-.656z" fill="#FFE352"/><path d="M18.594 31.875v-9.297h3.984l-6.64-9.297-6.641 9.297h3.984v9.297h5.313zM34.531 21.25v-9.297h3.985l-6.641-9.297-6.64 9.297h3.984v9.297h5.312z" fill="#9FDC6E"/><circle cx="23.5" cy="53.5" r="4.5" fill="#fff"/></svg>