<svg width="85" height="85" fill="none" xmlns="http://www.w3.org/2000/svg"><path d="M74.375 63.75h-63.75a5.313 5.313 0 01-5.313-5.313V7.97a5.313 5.313 0 015.313-5.313h63.75a5.313 5.313 0 015.313 5.313v50.468a5.313 5.313 0 01-5.313 5.313z" fill="#EDEFF1"/><path d="M42.5 42.5a9.297 9.297 0 100-18.594 9.297 9.297 0 000 18.594z" fill="#D3D3D3"/><path d="M42.5 41.172a7.969 7.969 0 100-15.938 7.969 7.969 0 000 15.938z" fill="#EDEFF1"/><path d="M45.156 30.547v5.312l3.985-2.656-3.985-2.656zm-1.992-10.625h-1.328v2.656h1.328v-2.656zm-5.402 3.747l-1.328-2.3-1.15.663 1.327 2.3 1.15-.663zm-4.131 3.646l-2.3-1.329-.664 1.15 2.3 1.329.664-1.15zm-1.756 5.225h-2.656v1.327h2.656V32.54zm1.754 6.551l-.664-1.15-2.3 1.328.663 1.15 2.3-1.328zm4.135 3.646l-1.15-.664-1.328 2.3 1.15.664 1.328-2.3zm5.4 1.091h-1.328v2.656h1.328v-2.656zm6.55.544l-1.328-2.3-1.15.663 1.329 2.3 1.149-.663zm4.622-5.103l-2.3-1.328-.665 1.15 2.301 1.328.664-1.15zm1.445-6.729h-2.656v1.327h2.656V32.54zm-1.449-5.401l-.664-1.15-2.3 1.327.663 1.15 2.3-1.327zm-4.618-5.109l-1.148-.663-1.33 2.3 1.15.663 1.328-2.3z" fill="#D3D3D3"/><path d="M71.719 6.64H13.28a3.99 3.99 0 00-3.984 3.985v2.656H7.969v10.625h1.328V42.5H7.969v10.625h1.328v2.656a3.99 3.99 0 003.984 3.985H71.72a3.99 3.99 0 003.984-3.985V10.625a3.99 3.99 0 00-3.984-3.984zm1.328 49.141a1.33 1.33 0 01-1.328 1.328H13.28a1.33 1.33 0 01-1.328-1.328v-2.656h1.328V42.5h-1.328V23.906h1.328V13.281h-1.328v-2.656a1.33 1.33 0 011.328-1.328h58.44a1.33 1.33 0 011.328 1.328v45.156zM10.625 63.75v5.313h7.969l5.312-5.313s-13.447.166-13.28 0zm63.75 0v5.313h-7.969l-5.312-5.313s13.447.166 13.281 0z" fill="#D3D3D3"/><path d="M68.078 45.656H4.328v2.657h63.75v-2.657z" fill="#9FDC6E"/><path d="M69.406 48H3v34.531h66.406V48z" fill="#9FDC6E"/><path d="M60.848 50.989c-.082-.546-.522-.997-1.075-.997h-47.14c-.552 0-.992.45-1.074.997a6.646 6.646 0 01-5.57 5.57c-.546.082-.997.522-.997 1.074v15.265c0 .553.45.993.997 1.075a6.646 6.646 0 015.57 5.57c.082.546.522.996 1.074.996h47.14c.553 0 .992-.45 1.075-.996a6.646 6.646 0 015.57-5.57c.546-.082.996-.522.996-1.075V57.633c0-.553-.45-.992-.996-1.075a6.646 6.646 0 01-5.57-5.57zm3.91 19.895c0 .442-.293.826-.705.987a9.35 9.35 0 00-5.307 5.307c-.16.412-.545.705-.987.705H14.648c-.442 0-.827-.293-.987-.705a9.35 9.35 0 00-5.308-5.307c-.412-.16-.705-.545-.705-.987V59.648c0-.443.293-.827.705-.987a9.35 9.35 0 005.308-5.308c.16-.412.545-.705.987-.705h43.11c.443 0 .827.293.987.705a9.35 9.35 0 005.308 5.308c.412.16.705.544.705.987v11.236z" fill="#fff"/><path d="M62.766 82.844h18.593c.734 0 1.329-.595 1.329-1.328V77.53a1.33 1.33 0 00-1.329-1.328H62.766c-.733 0-1.328.595-1.328 1.328v3.985c0 .733.594 1.328 1.328 1.328z" fill="#FFE352"/><path d="M80.695 81.516V77.53h-1.328v3.985h-2.656V77.53h-1.328v3.985h-2.656V77.53h-1.329v3.985h-2.656V77.53h-1.328v3.985h-2.656V77.53H63.43v3.985h-1.992c0 .733.594 1.328 1.328 1.328h18.593c.734 0 1.329-.595 1.329-1.328h-1.993z" fill="#FFB236"/><path d="M62.766 76.203h18.593c.734 0 1.329-.595 1.329-1.328v-3.984a1.33 1.33 0 00-1.329-1.329H62.766a1.33 1.33 0 00-1.328 1.329v3.984c0 .733.594 1.328 1.328 1.328z" fill="#FFE352"/><path d="M80.695 74.875v-3.984h-1.328v3.984h-2.656v-3.984h-1.328v3.984h-2.656v-3.984h-1.329v3.984h-2.656v-3.984h-1.328v3.984h-2.656v-3.984H63.43v3.984h-1.992c0 .733.594 1.328 1.328 1.328h18.593c.734 0 1.329-.595 1.329-1.328h-1.993z" fill="#FFB236"/><path d="M62.766 69.563h18.593a1.33 1.33 0 001.329-1.329V64.25a1.33 1.33 0 00-1.329-1.328H62.766c-.733 0-1.328.595-1.328 1.328v3.984c0 .734.594 1.329 1.328 1.329z" fill="#FFE352"/><path d="M80.695 68.234V64.25h-1.328v3.984h-2.656V64.25h-1.328v3.984h-2.656V64.25h-1.329v3.984h-2.656V64.25h-1.328v3.984h-2.656V64.25H63.43v3.984h-1.992c0 .734.594 1.329 1.328 1.329h18.593a1.33 1.33 0 001.329-1.329h-1.993z" fill="#FFB236"/><path d="M62.766 62.922h18.593c.734 0 1.329-.595 1.329-1.328v-3.985a1.33 1.33 0 00-1.329-1.328H62.766c-.733 0-1.328.595-1.328 1.328v3.985c0 .733.594 1.328 1.328 1.328z" fill="#FFE352"/><path d="M80.695 61.594v-3.985h-1.328v3.985h-2.656v-3.985h-1.328v3.985h-2.656v-3.985h-1.329v3.985h-2.656v-3.985h-1.328v3.985h-2.656v-3.985H63.43v3.985h-1.992c0 .733.594 1.328 1.328 1.328h18.593c.734 0 1.329-.595 1.329-1.328h-1.993z" fill="#FFB236"/><path d="M68.078 46.984H4.328v1.328h63.75v-1.328z" fill="#fff"/><path d="M66.75 43H5.656v2.656H66.75V43z" fill="#9FDC6E"/><path d="M66.75 44.328H5.656v1.328H66.75v-1.328z" fill="#fff"/><path d="M35.969 72.938a7.969 7.969 0 100-15.938 7.969 7.969 0 000 15.938z" fill="#FBFEF9"/><path d="M31.625 66.64h8.75c.345 0 .625-.326.625-.728v-2.184c0-.402-.28-.728-.625-.728h-8.75c-.345 0-.625.326-.625.728v2.184c0 .402.28.729.625.729z" fill="#FFE352"/><path d="M40.063 65.912v-2.184h-.626v2.184h-1.25v-2.184h-.624v2.184h-1.25v-2.184h-.626v2.184h-1.25v-2.184h-.624v2.184h-1.25v-2.184h-.626v2.184H31c0 .402.28.729.625.729h8.75c.345 0 .625-.327.625-.729h-.938z" fill="#FFB236"/></svg>