<svg width="78" height="78" fill="none" xmlns="http://www.w3.org/2000/svg"><path d="M29.215 53.605A8.588 8.588 0 0033.98 57.9a9.92 9.92 0 006.495-.786.664.664 0 00.305-.888L29.984 34.154l-8.18 4.001 7.41 15.45zm-2.391 1.157L20.122 40.79l-6.84 3.346 6.71 13.72a9.96 9.96 0 0013.324 4.572.664.664 0 00.305-.889l-.317-.649a1.486 1.486 0 00-.764-.706 11.248 11.248 0 01-5.716-5.42z" fill="#FBB8B0"/><path d="M21.15 45.947l43.055 12.12a1.66 1.66 0 002.048-1.15l6.694-23.78-43.828.066-7.969 12.744z" fill="#63C521"/><path d="M58.529 52.278c-.132 0-.262-.02-.388-.057l-31.578-9.447.774-2.54 30.39 9.083a5.35 5.35 0 014.547-2.83l2.804-9.983 2.567.684-3.091 11.058a1.326 1.326 0 01-1.565.956 2.656 2.656 0 00-3.162 2.03 1.328 1.328 0 01-1.298 1.046z" fill="#9FDC6E"/><path d="M72.946 33.137l-43.828.066-4.152 6.64h46.092l1.888-6.706z" fill="#5AB31E"/><path d="M12.285 37.188h63.086a1.66 1.66 0 001.66-1.66V1.66A1.66 1.66 0 0075.371 0H12.285a1.66 1.66 0 00-1.66 1.66v33.867c0 .917.743 1.66 1.66 1.66z" fill="#9FDC6E"/><path d="M66.634 33.203h-35.65v-2.656h34.094a5.319 5.319 0 015.313-5.313V10.625a5.322 5.322 0 01-5.145-3.984H21.082a5.332 5.332 0 01-3.816 3.816v14.945a5.322 5.322 0 013.984 5.145h-2.656a2.66 2.66 0 00-2.657-2.656 1.328 1.328 0 01-1.328-1.328V9.297a1.328 1.328 0 011.329-1.328 2.66 2.66 0 002.656-2.657 1.328 1.328 0 011.328-1.328h46.484a1.328 1.328 0 011.328 1.329 2.656 2.656 0 003.542 2.504 1.328 1.328 0 011.77 1.252V26.79a1.329 1.329 0 01-1.77 1.252 2.657 2.657 0 00-3.39 3.39 1.327 1.327 0 01-1.252 1.771z" fill="#FBFEF9"/><path d="M43.828 26.563a7.969 7.969 0 100-15.938 7.969 7.969 0 000 15.938z" fill="#FBFEF9"/><path d="M12.617 77.031a8.633 8.633 0 008.633-8.633V51.797l8.151-13.271a9.96 9.96 0 00-2.59-13.492 2.046 2.046 0 00-2.788.386L14.61 37.187h-2.424a1.66 1.66 0 01-1.66-1.66V7.97h-2.49a3.32 3.32 0 00-3.256 2.669L.812 30.469a20 20 0 00.056 8.113l3.116 14.543v15.273a8.633 8.633 0 008.633 8.633z" fill="#FFD4CF"/><path d="M39.625 20.64h8.75c.345 0 .625-.326.625-.727v-2.185c0-.402-.28-.728-.625-.728h-8.75c-.345 0-.625.326-.625.728v2.184c0 .402.28.729.625.729z" fill="#FFE352"/><path d="M48.063 19.913v-2.185h-.626v2.184h-1.25v-2.184h-.624v2.184h-1.25v-2.184h-.626v2.184h-1.25v-2.184h-.624v2.184h-1.25v-2.184h-.626v2.184H39c0 .402.28.729.625.729h8.75c.345 0 .625-.327.625-.728h-.938z" fill="#FFB236"/></svg>