<svg width="85" height="85" fill="none" xmlns="http://www.w3.org/2000/svg"><path d="M10.625 47.813h18.594l-2.382-8.335a1.327 1.327 0 00-1.276-.962H14.284a1.33 1.33 0 00-1.278.962l-2.381 8.334z" fill="#FFE352"/><path d="M19.922 38.516h18.594l-2.382-8.334a1.327 1.327 0 00-1.276-.963H23.581a1.33 1.33 0 00-1.278.963l-2.381 8.334z" fill="#FFE352"/><path d="M38.516 38.516h18.593l-2.381-8.334a1.327 1.327 0 00-1.276-.963H42.175a1.33 1.33 0 00-1.278.963l-2.381 8.334z" fill="#FFE352"/><path d="M29.219 29.219h18.593l-2.38-8.334a1.327 1.327 0 00-1.277-.963H32.878a1.33 1.33 0 00-1.278.963l-2.381 8.334z" fill="#FFE352"/><path d="M20.302 37.188l-.38 1.328h18.594l-.38-1.328H20.302zm-9.297 9.296l-.38 1.328h18.594l-.38-1.328H11.005z" fill="#FFB236"/><path d="M38.895 37.188l-.38 1.328H57.11l-.38-1.328H38.895zm-9.296-9.298l-.38 1.329h18.593l-.38-1.328H29.6z" fill="#FFB236"/><path d="M29.219 47.813h18.593l-2.38-8.335a1.327 1.327 0 00-1.277-.962H32.878a1.33 1.33 0 00-1.278.962l-2.381 8.334z" fill="#FFE352"/><path d="M29.599 46.484l-.38 1.328h18.593l-.38-1.328H29.6z" fill="#FFB236"/><path d="M47.813 47.813h18.593l-2.381-8.335a1.327 1.327 0 00-1.276-.962H51.47a1.33 1.33 0 00-1.277.962l-2.382 8.334z" fill="#FFE352"/><path d="M48.192 46.484l-.38 1.328h18.594l-.38-1.328H48.192z" fill="#FFB236"/><path d="M71.719 75.04V56.444a1.992 1.992 0 00-3.985 0V75.04a1.992 1.992 0 003.985 0z" fill="#EDEFF1"/><path d="M80.344 53.125h-6.625a2 2 0 00-2 2v21.234a2 2 0 002 2h6.625a2 2 0 002-2V55.125a2 2 0 00-2-2z" fill="#80D6FB"/><path d="M65.078 55.781c-1.91-3.746-7.236-5.312-10.625-5.312-2.727 0-6.25.94-8.886 3.318-1.231 1.111-2.732 1.994-4.39 1.994h-9.302a3.984 3.984 0 100 7.969H27.89l-16.606-9.868a5.312 5.312 0 00-7.153 1.608l-1.03 1.544a2.657 2.657 0 00.738 3.684L25.225 74.81a5.29 5.29 0 002.94.892h39.569V55.781h-2.656z" fill="#FFD3B3"/><path d="M71.719 54.453H70.39v22.578h1.328V54.453z" fill="#D3D3D3"/><path d="M58.438 18.594c-2.201 0-3.985 3.111-3.985 5.312 0-2.2-1.784-5.312-3.984-5.312 2.2 0 3.984-3.112 3.984-5.313 0 2.201 1.784 5.313 3.984 5.313zM10.626 41.172c-2.201 0-3.985 3.112-3.985 5.312 0-2.2-1.783-5.312-3.984-5.312 2.2 0 3.984-3.112 3.984-5.313 0 2.201 1.784 5.313 3.985 5.313zm59.764-7.969c-1.65 0-2.656 2.334-2.656 3.984 0-1.65-1.005-3.984-2.656-3.984 1.651 0 2.656-2.333 2.656-3.984 0 1.65 1.006 3.984 2.657 3.984zM23.906 10.625c-1.65 0-2.656 2.334-2.656 3.984 0-1.65-1.005-3.984-2.656-3.984 1.65 0 2.656-2.334 2.656-3.984 0 1.65 1.005 3.984 2.656 3.984z" fill="#FFE352"/></svg>