<svg width="30" height="30" fill="none" xmlns="http://www.w3.org/2000/svg"><path d="M26.719 23.914H3.28a1.875 1.875 0 01-1.875-1.875V10.79h27.188v11.25c0 1.036-.84 1.875-1.875 1.875z" fill="#6E83B7"/><path d="M1.406 12.656c.226.171.48.307.762.388l4.95 1.414c.21.06.427.09.644.09h14.476c.217 0 .434-.03.644-.09l4.95-1.414c.282-.08.536-.217.762-.388V10.79H1.406v1.867z" fill="#466089"/><path d="M15 5.156H2.812c-1.035 0-1.874.84-1.874 1.875v3.282c0 .837.554 1.572 1.36 1.802l4.95 1.415c.167.047.34.072.514.072h14.476c.174 0 .347-.025.515-.072l4.95-1.415a1.875 1.875 0 001.36-1.803v-3.28c0-1.036-.84-1.876-1.875-1.876H15z" fill="#6E83B7"/><path d="M16.406 15.477h-2.812a.469.469 0 01-.469-.47v-2.812c0-.258.21-.468.469-.468h2.812c.259 0 .469.21.469.468v2.813c0 .259-.21.469-.469.469z" fill="#EDEFF1"/><path d="M14.063 13.594a.937.937 0 101.874 0 .937.937 0 00-1.874 0z" fill="#6E83B7"/><path d="M11.25 4.219H9.375a.469.469 0 000 .937h1.875a.469.469 0 100-.937zm9.375 0H18.75a.469.469 0 100 .937h1.875a.469.469 0 100-.937z" fill="#EDEFF1"/><path d="M18.75.469h-7.5c-1.034 0-1.875.84-1.875 1.875v.937a.937.937 0 101.875 0c0-.518.42-.937.938-.937h5.625c.517 0 .937.42.937.937a.937.937 0 101.875 0v-.937c0-1.034-.84-1.875-1.875-1.875z" fill="#6E83B7"/></svg>